<?xml version="1.0" encoding="utf-8"?>
<svg viewBox="169.444 233.801 64.023 67.153" xmlns="http://www.w3.org/2000/svg">
  <defs>
    <radialGradient id="a" cx="14.288" cy="68.873" r="11.69" gradientTransform="matrix(1.3993 -2.2344e-7 8.1962e-8 .51326 4.3651 4.8393)" gradientUnits="userSpaceOnUse">
      <stop stop-opacity=".32673" offset="0"/>
      <stop stop-opacity="0" offset="1"/>
    </radialGradient>
    <linearGradient id="b" x1="-34.312" x2="-23.631" y1="2.0445" y2="48.846" gradientUnits="userSpaceOnUse">
      <stop stop-color="#184375" offset="0"/>
      <stop stop-color="#c8bddc" offset="1"/>
    </linearGradient>
  </defs>
  <g transform="matrix(0.118858, 0, 0, 0.118858, 85.877266, 193.091797)" style="">
    <g fill="#594A42">
      <path d="m1227.8 605.5l-447.59-258.42c-18.576-10.725-33.775-1.95-33.775 19.5v516.83c0 21.45 15.199 30.225 33.775 19.5l447.59-258.42c18.576-10.725 18.576-28.275 0-39z" style="paint-order: fill; fill: rgb(0, 1, 122);"/>
    </g>
  </g>
  <g transform="matrix(1.032398, -0.046021, 0.042888, 0.962162, 168.666321, 246.232483)" style="">
    <path transform="matrix(1.1864 0 0 1.1864 -4.5397 -7.7947)" d="m44.286 38.714a19.929 9.8372 0 1 1 -39.857 0 19.929 9.8372 0 1 1 39.857 0z" fill="url(#a)" fill-rule="evenodd"/>
    <path d="m22.7 0.94747c-0.47318 0.03238-0.93309 0.10566-1.3978 0.15885h-0.03177l-1.1119 6.068c-1.8124 0.41274-3.5174 1.1132-5.0513 2.065l-4.9878-3.5899c-1.3483 1.0468-2.5753 2.2677-3.6535 3.5899l3.4629 5.0513c-1.0514 1.6068-1.8421 3.4415-2.2874 5.369-8e-5 0.00911-6e-5 0.03018 0 0.03177l-6.0362 0.95308c-0.11036 0.90137-0.15885 1.8329-0.15885 2.7639 0 0.76175 0.02103 1.5133 0.09531 2.2556l6.0362 1.0802c0.4293 2.0962 1.2448 4.0538 2.3827 5.782l-3.5899 4.9242c1.0281 1.2764 2.2151 2.4385 3.4946 3.4629l5.0831-3.4946c1.7765 1.1332 3.7596 1.9279 5.9091 2.3192l0.95308 6.0044c0.67725 0.06165 1.3718 0.06354 2.065 0.06354 0.97869 0 1.9135-0.03709 2.8592-0.15885l1.1437-6.1315c2.0409-0.5079 3.9582-1.389 5.6232-2.5733l4.8925 3.5582c1.2688-1.0794 2.429-2.3202 3.4311-3.6535l-3.5582-5.1466c0.96361-1.6642 1.6313-3.5004 1.9697-5.4643l6.0044-0.95308c0.05266-0.62659 0.06354-1.2343 0.06354-1.8744 0-1.1124-0.12929-2.2031-0.28592-3.2722l-6.0997-1.1119c-0.47801-1.7651-1.2623-3.4119-2.2556-4.8925l3.5899-4.9242c-1.1128-1.3608-2.3821-2.618-3.7806-3.6852l-5.1784 3.5582c-1.4883-0.88023-3.09-1.5556-4.8289-1.9379l-0.95308-6.0362c-0.86748-0.10204-1.7421-0.15885-2.6369-0.15885-0.24183 0-0.49071-0.00761-0.7307 0-0.11699 0.00371-0.23277-0.00681-0.34946 0h-0.09531zm0.826 15.44c0.11606-0.00589 0.23194 0 0.34946 0 3.7606 0 6.8304 3.0698 6.8304 6.8304s-3.0698 6.7986-6.8304 6.7986-6.7986-3.038-6.7986-6.7986c0-3.6431 2.8512-6.6478 6.4492-6.8304z" fill="url(#b)" stroke="#3f4561" stroke-linecap="round" stroke-linejoin="round"/>
    <path transform="matrix(.6166 0 0 .6166 9.382 8.5397)" d="m36.239 23.782a12.728 12.728 0 1 1 -25.456 0 12.728 12.728 0 1 1 25.456 0z" fill="none" opacity=".64773" stroke="#fff" stroke-width="1.6218"/>
    <path d="m21.996 2.1485-0.89278 5.8751c-1.6988 0.38687-4.8236 1.5701-6.2614 2.4622l-4.7497-3.5451c-1.2638 0.9812-1.3505 1.0477-2.3611 2.2871l3.4342 5.0932c-0.98553 1.5061-2.1693 4.19-2.5943 6.1079l-6.0178 1.0144c-0.10344 0.84488-0.05373 2.6532 0.01589 3.349l5.7482 1.0355c0.40239 1.9648 1.9082 5.1274 2.9748 6.7473l-3.635 4.8026c0.9637 1.1964 1.1566 1.3059 2.3559 2.266l4.8606-3.561c1.6651 1.0622 4.9703 2.3544 6.9851 2.7211l0.79773 5.8011c0.63481 0.05778 2.3885 0.21988 3.275 0.10575l0.89278-6.0389c1.913-0.47607 5.2185-1.8329 6.7791-2.943l4.8554 3.5082c1.1892-1.0118 1.1999-1.1642 2.1392-2.414l-3.598-5.1143c0.90322-1.5599 2.0711-4.6106 2.3883-6.4515l5.891-0.97744c0.04935-0.58732 0.05176-2.2252-0.09506-3.2273l-6.0019-1.0355c-0.44805-1.6545-1.9857-4.6358-2.9167-6.0236l3.8147-4.8026c-1.043-1.2756-1.4308-1.4506-2.7416-2.451l-5.0244 3.598c-1.395-0.82506-4.1769-2.0828-5.8069-2.4412l-0.88759-5.7482c-0.81311-0.09565-3.159-0.05317-3.6237 0z" fill="none" opacity=".34659" stroke="#fff"/>
    <path d="m10.1029,6.29707c-1.34833,1.0468-1.93726,1.67486-3.01543,2.99713l3.40246,4.96496c-1.05142,1.5986-2.1583,4.16696-2.34754,5.72855l-6.0625,1.04419c-.06897.56336-.17364,1.8529-.17364,1.8529l.17678,1.5625c.42773.08833.84016.17051 1.28125.21875l.5-1.53125c.34404.02848.67965.0625 1.03125.0625s.71846-.03383 1.0625-.0625l.46875,1.53125c.44129-.04824.88477-.13042 1.3125-.21875v-1.5625c.68576-.15962 1.332-.38776 1.96875-.65625l.9375,1.28125c.40235-.18209.7756-.37582 1.15625-.59375l-.5-1.5c.59723-.36225 1.16175-.79535 1.6875-1.25l1.28125.9375c.32564-.29658.64111-.61186.9375-.9375l-.9375-1.25c.45485-.52575.8565-1.08988 1.21875-1.6875l1.5.46875c.21793-.38085.44329-.75409.625-1.15625l-1.28125-.9375c.26849-.63675.46499-1.28299.625-1.96875h1.59375c.08833-.42773.13946-.87121.1875-1.3125l-1.5-.46875c.02886-.34385.0625-.7111.0625-1.0625s-.03402-.68701-.0625-1.03125l1.5-.46875c-.04555-.41989-.10559-.842-.1875-1.25-1.14743.3993-2.55266,1.15312-3.56851,1.78347l-4.88036-3.52746z" fill="#fff" opacity=".5"/>
    <path d="m37.23664,17.21775c-.38378.18138-.74664.38575-1.11341.59554l.56965,1.73484c-.69709.4223-1.35473.91969-1.96788,1.45002l-1.47591-1.08751c-.38009.3459-.74177.70758-1.08751,1.08751l1.08751,1.47591c-.53033.61331-1.02755,1.27094-1.45002,1.96788l-.54376-.18125c-.04768.70028-.23638,1.36149-.51786,1.96788l.10357.07768c-.31316.74268-.56455,1.5304-.7509,2.33038h-1.47591c-.13628.08545-.27055.18506-.41429.25893-.07837.41527-.13491.81733-.18125,1.24287l1.76073.56965c-.03339.40128-.05179.8072-.05179,1.21698s.0184.8157.05179,1.21698l-1.76073.56965c.05602.51476.12999,1.02867.23304,1.5277l1.83841-.02589c.12812.54999.30307,1.10744.49197,1.63127 .74492-.28728 1.47383-.63018 2.14913-1.03572-.41159-1.21604-.64733-2.52911-.64733-3.88397 0-5.19793 3.29238-9.63666 7.8974-11.34119l-1.08751-.18125c-.22279-.82266-.51132-1.62859-.88037-2.38217-.01085-.02216-.01492-.05558-.02589-.07768l-.05179-.05179-.69911-.67322z" fill="#fff" opacity=".5"/>
  </g>
</svg>